# xmcd
#
# Track frame offsets:
#	150
#	5655
#	13346
#	25463
#	40464
#	58490
#	73579
#	91552
#	106735
#	123636
#	140628
#	159375
#	176511
#	195013
#	211158
#	228771
#	249346
#	266835
#	283923
#	291467
#
# Disc length: 3984 seconds
#
# Revision: 0
# Processed by: cddbd v1.5.2PL0 Copyright (c) Steve Scherf et al.
# Submitted via: dBpowerAMP V4.0
#
DISCID=250f8e14
DTITLE=Carrie Underwood - The Best Of Carrie
DYEAR=2005
DGENRE=Pop
TTITLE0=I Can't Make You Love Me
TTITLE1=Take Another Little Piece of My Heart
TTITLE2=Inside Your Heaven
TTITLE3=Before He Cheats
TTITLE4=Don't Forget to Remember Me
TTITLE5=I Ain't in Checotah any More
TTITLE6=I Just Can't Live a Lie
TTITLE7=Independence Day
TTITLE8=Inside Your Heaven
TTITLE9=Jesus, Take the Wheel
TTITLE10=Lessons Learned
TTITLE11=Some Hearts
TTITLE12=Starts With Goodbye
TTITLE13=That's Where It Is
TTITLE14=The Night Before (Life Goes On)
TTITLE15=Wasted
TTITLE16=We're Young And Beautiful
TTITLE17=Whenever You Remember
TTITLE18=Alone
TTITLE19=Crying
EXTD=teste
EXTT0=
EXTT1=
EXTT2=
EXTT3=
EXTT4=
EXTT5=
EXTT6=
EXTT7=
EXTT8=
EXTT9=
EXTT10=
EXTT11=
EXTT12=
EXTT13=
EXTT14=
EXTT15=
EXTT16=
EXTT17=
EXTT18=
EXTT19=
PLAYORDER=
